<?xml version="1.0"?>
<svg xmlns="http://www.w3.org/2000/svg" xmlns:xlink="http://www.w3.org/1999/xlink" version="1.1" id="Capa_1" x="0px" y="0px" viewBox="0 0 512 512" style="enable-background:new 0 0 512 512;" xml:space="preserve" width="512px" height="512px" class=""><g><g>
	<g>
		<path d="M492,236H20c-11.046,0-20,8.954-20,20c0,11.046,8.954,20,20,20h472c11.046,0,20-8.954,20-20S503.046,236,492,236z" data-original="#000000" class="active-path" data-old_color="#000000" fill="#FFFFFF47"/>
	</g>
</g><g>
	<g>
		<path d="M492,76H20C8.954,76,0,84.954,0,96s8.954,20,20,20h472c11.046,0,20-8.954,20-20S503.046,76,492,76z" data-original="#000000" class="active-path" data-old_color="#000000" fill="#FFFFFF47"/>
	</g>
</g><g>
	<g>
		<path d="M492,396H20c-11.046,0-20,8.954-20,20c0,11.046,8.954,20,20,20h472c11.046,0,20-8.954,20-20    C512,404.954,503.046,396,492,396z" data-original="#000000" class="active-path" data-old_color="#000000" fill="#FFFFFF47"/>
	</g>
</g></g> </svg>
